<mxfile host="Electron" modified="2024-06-01T08:47:39.857Z" agent="Mozilla/5.0 (Windows NT 10.0; Win64; x64) AppleWebKit/537.36 (KHTML, like Gecko) draw.io/22.1.18 Chrome/120.0.6099.199 Electron/28.1.2 Safari/537.36" etag="wVEEeHtps-GayyfAwTPK" version="22.1.18" type="device">
  <diagram name="Seite-1" id="ucrNPSrBNzheioZG4M75">
    <mxGraphModel dx="2048" dy="1886" grid="1" gridSize="10" guides="1" tooltips="1" connect="1" arrows="1" fold="1" page="1" pageScale="1" pageWidth="827" pageHeight="1169" math="0" shadow="0">
      <root>
        <mxCell id="0" />
        <mxCell id="1" parent="0" />
        <mxCell id="0GtM-e1DYwYkRJwqqrjI-37" value="" style="rounded=0;whiteSpace=wrap;html=1;" vertex="1" parent="1">
          <mxGeometry x="660" y="-80" width="390" height="190" as="geometry" />
        </mxCell>
        <mxCell id="0GtM-e1DYwYkRJwqqrjI-20" value="" style="rounded=0;whiteSpace=wrap;html=1;" vertex="1" parent="1">
          <mxGeometry x="170" y="-70" width="425" height="190" as="geometry" />
        </mxCell>
        <mxCell id="_DPa7qCJkOYMl-InHak0-1" value="Bank" style="rounded=0;whiteSpace=wrap;html=1;" parent="1" vertex="1">
          <mxGeometry x="439.5" y="360" width="123" height="40" as="geometry" />
        </mxCell>
        <mxCell id="_DPa7qCJkOYMl-InHak0-2" value="ChaosCandyClub" style="rounded=0;whiteSpace=wrap;html=1;" parent="1" vertex="1">
          <mxGeometry x="555.5" y="360" width="110" height="40" as="geometry" />
        </mxCell>
        <mxCell id="_DPa7qCJkOYMl-InHak0-3" value="Straße" style="rounded=0;whiteSpace=wrap;html=1;" parent="1" vertex="1">
          <mxGeometry x="252.5" y="360" width="73" height="40" as="geometry" />
        </mxCell>
        <mxCell id="_DPa7qCJkOYMl-InHak0-4" value="Krankenhaus" style="rounded=0;whiteSpace=wrap;html=1;" parent="1" vertex="1">
          <mxGeometry x="662.5" y="360" width="180" height="40" as="geometry" />
        </mxCell>
        <mxCell id="_DPa7qCJkOYMl-InHak0-5" value="Reisen" style="rounded=0;whiteSpace=wrap;html=1;" parent="1" vertex="1">
          <mxGeometry x="322.5" y="360" width="117" height="40" as="geometry" />
        </mxCell>
        <mxCell id="_DPa7qCJkOYMl-InHak0-6" value="Datum: 01/02/2024&lt;br&gt;Location: Rifton&lt;br&gt;CandyCoins: 500 CC&lt;br&gt;Lebenspunkte: 80/100&lt;br&gt;Inventar: 4/10&lt;br&gt;Süßigkeiten:&lt;br&gt;&lt;span style=&quot;white-space: pre;&quot;&gt;&#x9;&lt;/span&gt;- Schokolade 4x" style="rounded=0;whiteSpace=wrap;html=1;align=left;verticalAlign=top;" parent="1" vertex="1">
          <mxGeometry x="677.5" y="400" width="165" height="160" as="geometry" />
        </mxCell>
        <mxCell id="_DPa7qCJkOYMl-InHak0-7" value="Schulden:&lt;br&gt;keine | 100 CC (5 Tage)" style="rounded=0;whiteSpace=wrap;html=1;align=left;" parent="1" vertex="1">
          <mxGeometry x="677.5" y="560" width="165" height="50" as="geometry" />
        </mxCell>
        <mxCell id="_DPa7qCJkOYMl-InHak0-8" value="Bank: 400 CC" style="rounded=0;whiteSpace=wrap;html=1;align=left;" parent="1" vertex="1">
          <mxGeometry x="677.5" y="610" width="165" height="50" as="geometry" />
        </mxCell>
        <mxCell id="_DPa7qCJkOYMl-InHak0-9" value="&amp;lt;&amp;lt;Ereignisse&amp;gt;&amp;gt;" style="rounded=0;whiteSpace=wrap;html=1;" parent="1" vertex="1">
          <mxGeometry x="252.5" y="560" width="426" height="100" as="geometry" />
        </mxCell>
        <mxCell id="_DPa7qCJkOYMl-InHak0-10" value="User Eingabe" style="rounded=0;whiteSpace=wrap;html=1;" parent="1" vertex="1">
          <mxGeometry x="252.5" y="400" width="425" height="160" as="geometry" />
        </mxCell>
        <mxCell id="0GtM-e1DYwYkRJwqqrjI-12" value="" style="rounded=0;whiteSpace=wrap;html=1;" vertex="1" parent="1">
          <mxGeometry x="102.5" y="360" width="150" height="300" as="geometry" />
        </mxCell>
        <mxCell id="0GtM-e1DYwYkRJwqqrjI-13" value="&lt;div style=&quot;text-align: justify; line-height: 50%;&quot;&gt;&lt;span style=&quot;background-color: initial;&quot;&gt;__&lt;/span&gt;&lt;/div&gt;&lt;div style=&quot;text-align: justify; line-height: 50%;&quot;&gt;&lt;span style=&quot;background-color: initial;&quot;&gt;__&lt;/span&gt;&lt;/div&gt;&lt;div style=&quot;text-align: justify; line-height: 50%;&quot;&gt;&lt;span style=&quot;background-color: initial;&quot;&gt;__&lt;/span&gt;&lt;/div&gt;" style="text;html=1;align=center;verticalAlign=middle;resizable=0;points=[];autosize=1;strokeColor=none;fillColor=none;" vertex="1" parent="1">
          <mxGeometry x="102.5" y="360" width="40" height="30" as="geometry" />
        </mxCell>
        <mxCell id="0GtM-e1DYwYkRJwqqrjI-1" value="Neues Spiel" style="rounded=0;whiteSpace=wrap;html=1;" vertex="1" parent="1">
          <mxGeometry x="102.5" y="400" width="150" height="40" as="geometry" />
        </mxCell>
        <mxCell id="0GtM-e1DYwYkRJwqqrjI-5" value="Laden" style="rounded=0;whiteSpace=wrap;html=1;" vertex="1" parent="1">
          <mxGeometry x="102.5" y="480" width="150" height="40" as="geometry" />
        </mxCell>
        <mxCell id="0GtM-e1DYwYkRJwqqrjI-7" value="Speichern" style="rounded=0;whiteSpace=wrap;html=1;" vertex="1" parent="1">
          <mxGeometry x="102.5" y="440" width="150" height="40" as="geometry" />
        </mxCell>
        <mxCell id="0GtM-e1DYwYkRJwqqrjI-14" value="CANDYLORD" style="rounded=0;whiteSpace=wrap;html=1;" vertex="1" parent="1">
          <mxGeometry x="117.5" y="580" width="120" height="60" as="geometry" />
        </mxCell>
        <mxCell id="0GtM-e1DYwYkRJwqqrjI-15" value="Stadt 1 (100 CC)" style="rounded=0;whiteSpace=wrap;html=1;" vertex="1" parent="1">
          <mxGeometry x="270" y="40" width="160" height="30" as="geometry" />
        </mxCell>
        <mxCell id="0GtM-e1DYwYkRJwqqrjI-16" value="&amp;lt;&amp;lt;input dropdown&amp;gt;&amp;gt;" style="rounded=0;whiteSpace=wrap;html=1;" vertex="1" parent="1">
          <mxGeometry x="270" y="10" width="160" height="30" as="geometry" />
        </mxCell>
        <mxCell id="0GtM-e1DYwYkRJwqqrjI-17" value="Stadt 2 (150 CC)" style="rounded=0;whiteSpace=wrap;html=1;" vertex="1" parent="1">
          <mxGeometry x="270" y="70" width="160" height="30" as="geometry" />
        </mxCell>
        <mxCell id="0GtM-e1DYwYkRJwqqrjI-18" value="Reisen" style="rounded=0;whiteSpace=wrap;html=1;" vertex="1" parent="1">
          <mxGeometry x="440" y="10" width="117" height="30" as="geometry" />
        </mxCell>
        <mxCell id="0GtM-e1DYwYkRJwqqrjI-19" value="Reisen" style="rounded=0;whiteSpace=wrap;html=1;" vertex="1" parent="1">
          <mxGeometry x="310" y="-60" width="117" height="40" as="geometry" />
        </mxCell>
        <mxCell id="0GtM-e1DYwYkRJwqqrjI-21" value="" style="rounded=0;whiteSpace=wrap;html=1;" vertex="1" parent="1">
          <mxGeometry x="-290" y="-60" width="425" height="190" as="geometry" />
        </mxCell>
        <mxCell id="0GtM-e1DYwYkRJwqqrjI-22" value="Straße" style="rounded=0;whiteSpace=wrap;html=1;" vertex="1" parent="1">
          <mxGeometry x="-270" y="-50" width="117" height="40" as="geometry" />
        </mxCell>
        <mxCell id="0GtM-e1DYwYkRJwqqrjI-23" value="Süßigkeit 1 (5 CC)" style="rounded=0;whiteSpace=wrap;html=1;" vertex="1" parent="1">
          <mxGeometry x="-260" y="20" width="120" height="30" as="geometry" />
        </mxCell>
        <mxCell id="0GtM-e1DYwYkRJwqqrjI-24" value="Süßigkeit 2 (10 CC)" style="rounded=0;whiteSpace=wrap;html=1;" vertex="1" parent="1">
          <mxGeometry x="-70" y="20" width="120" height="30" as="geometry" />
        </mxCell>
        <mxCell id="0GtM-e1DYwYkRJwqqrjI-25" value="Süßigkeit 3 (15CC)" style="rounded=0;whiteSpace=wrap;html=1;" vertex="1" parent="1">
          <mxGeometry x="-260" y="60" width="120" height="30" as="geometry" />
        </mxCell>
        <mxCell id="0GtM-e1DYwYkRJwqqrjI-26" value="Süßigkeit 4 (20 CC)" style="rounded=0;whiteSpace=wrap;html=1;" vertex="1" parent="1">
          <mxGeometry x="-70" y="60" width="120" height="30" as="geometry" />
        </mxCell>
        <mxCell id="0GtM-e1DYwYkRJwqqrjI-27" value="&lt;blockquote style=&quot;margin: 0 0 0 40px; border: none; padding: 0px;&quot;&gt;&amp;lt;&amp;lt;Dialog&amp;gt;&amp;gt;&lt;/blockquote&gt;" style="rounded=0;whiteSpace=wrap;html=1;verticalAlign=top;" vertex="1" parent="1">
          <mxGeometry x="-277.5" y="150" width="400" height="160" as="geometry" />
        </mxCell>
        <mxCell id="0GtM-e1DYwYkRJwqqrjI-28" value="&amp;lt;&amp;lt;Input Text&amp;gt;&amp;gt;" style="rounded=0;whiteSpace=wrap;html=1;" vertex="1" parent="1">
          <mxGeometry x="-157.5" y="230" width="110" height="30" as="geometry" />
        </mxCell>
        <mxCell id="0GtM-e1DYwYkRJwqqrjI-29" value="Kaufen" style="rounded=0;whiteSpace=wrap;html=1;" vertex="1" parent="1">
          <mxGeometry x="-17.5" y="190" width="120" height="30" as="geometry" />
        </mxCell>
        <mxCell id="0GtM-e1DYwYkRJwqqrjI-30" value="Verkaufen" style="rounded=0;whiteSpace=wrap;html=1;" vertex="1" parent="1">
          <mxGeometry x="-17.5" y="230" width="120" height="30" as="geometry" />
        </mxCell>
        <mxCell id="0GtM-e1DYwYkRJwqqrjI-31" value="Süßigkeit X (Y CC)" style="rounded=0;whiteSpace=wrap;html=1;" vertex="1" parent="1">
          <mxGeometry x="-247.5" y="190" width="200" height="30" as="geometry" />
        </mxCell>
        <mxCell id="0GtM-e1DYwYkRJwqqrjI-32" value="Anzahl:" style="rounded=0;whiteSpace=wrap;html=1;" vertex="1" parent="1">
          <mxGeometry x="-247.5" y="230" width="80" height="30" as="geometry" />
        </mxCell>
        <mxCell id="0GtM-e1DYwYkRJwqqrjI-33" value="Bank" style="rounded=0;whiteSpace=wrap;html=1;" vertex="1" parent="1">
          <mxGeometry x="790" y="-70" width="117" height="40" as="geometry" />
        </mxCell>
        <mxCell id="0GtM-e1DYwYkRJwqqrjI-34" value="&amp;lt;&amp;lt;Input Text&amp;gt;&amp;gt;" style="rounded=0;whiteSpace=wrap;html=1;" vertex="1" parent="1">
          <mxGeometry x="730" y="30" width="110" height="30" as="geometry" />
        </mxCell>
        <mxCell id="0GtM-e1DYwYkRJwqqrjI-35" value="Einzahlen" style="rounded=0;whiteSpace=wrap;html=1;" vertex="1" parent="1">
          <mxGeometry x="860" y="10" width="120" height="30" as="geometry" />
        </mxCell>
        <mxCell id="0GtM-e1DYwYkRJwqqrjI-36" value="Auszahlen" style="rounded=0;whiteSpace=wrap;html=1;" vertex="1" parent="1">
          <mxGeometry x="860" y="60" width="120" height="30" as="geometry" />
        </mxCell>
        <mxCell id="0GtM-e1DYwYkRJwqqrjI-38" value="" style="rounded=0;whiteSpace=wrap;html=1;" vertex="1" parent="1">
          <mxGeometry x="1080" y="-80" width="390" height="190" as="geometry" />
        </mxCell>
        <mxCell id="0GtM-e1DYwYkRJwqqrjI-39" value="CCC" style="rounded=0;whiteSpace=wrap;html=1;" vertex="1" parent="1">
          <mxGeometry x="1210" y="-70" width="117" height="40" as="geometry" />
        </mxCell>
        <mxCell id="0GtM-e1DYwYkRJwqqrjI-41" value="Zurückzahlen" style="rounded=0;whiteSpace=wrap;html=1;" vertex="1" parent="1">
          <mxGeometry x="1280" y="10" width="120" height="30" as="geometry" />
        </mxCell>
        <mxCell id="0GtM-e1DYwYkRJwqqrjI-42" value="Leihen" style="rounded=0;whiteSpace=wrap;html=1;" vertex="1" parent="1">
          <mxGeometry x="1140" y="10" width="120" height="30" as="geometry" />
        </mxCell>
        <mxCell id="0GtM-e1DYwYkRJwqqrjI-43" value="&lt;blockquote style=&quot;margin: 0 0 0 40px; border: none; padding: 0px;&quot;&gt;&amp;lt;&amp;lt;Dialog&amp;gt;&amp;gt;&lt;/blockquote&gt;" style="rounded=0;whiteSpace=wrap;html=1;verticalAlign=top;" vertex="1" parent="1">
          <mxGeometry x="1075" y="140" width="400" height="140" as="geometry" />
        </mxCell>
        <mxCell id="0GtM-e1DYwYkRJwqqrjI-44" value="&amp;lt;&amp;lt;Input Text&amp;gt;&amp;gt;" style="rounded=0;whiteSpace=wrap;html=1;" vertex="1" parent="1">
          <mxGeometry x="1195" y="200" width="110" height="30" as="geometry" />
        </mxCell>
        <mxCell id="0GtM-e1DYwYkRJwqqrjI-45" value="Ok" style="rounded=0;whiteSpace=wrap;html=1;" vertex="1" parent="1">
          <mxGeometry x="1335" y="180" width="120" height="30" as="geometry" />
        </mxCell>
        <mxCell id="0GtM-e1DYwYkRJwqqrjI-46" value="Abbrechen" style="rounded=0;whiteSpace=wrap;html=1;" vertex="1" parent="1">
          <mxGeometry x="1335" y="230" width="120" height="30" as="geometry" />
        </mxCell>
        <mxCell id="0GtM-e1DYwYkRJwqqrjI-48" value="Anzahl:" style="rounded=0;whiteSpace=wrap;html=1;" vertex="1" parent="1">
          <mxGeometry x="1105" y="200" width="80" height="30" as="geometry" />
        </mxCell>
        <mxCell id="0GtM-e1DYwYkRJwqqrjI-49" value="Abbrechen" style="rounded=0;whiteSpace=wrap;html=1;" vertex="1" parent="1">
          <mxGeometry x="-17.5" y="270" width="120" height="30" as="geometry" />
        </mxCell>
        <mxCell id="0GtM-e1DYwYkRJwqqrjI-50" value="" style="rounded=0;whiteSpace=wrap;html=1;" vertex="1" parent="1">
          <mxGeometry x="1510" y="-80" width="390" height="190" as="geometry" />
        </mxCell>
        <mxCell id="0GtM-e1DYwYkRJwqqrjI-51" value="Krankenhaus" style="rounded=0;whiteSpace=wrap;html=1;" vertex="1" parent="1">
          <mxGeometry x="1640" y="-70" width="117" height="40" as="geometry" />
        </mxCell>
        <mxCell id="0GtM-e1DYwYkRJwqqrjI-53" value="Heilen" style="rounded=0;whiteSpace=wrap;html=1;" vertex="1" parent="1">
          <mxGeometry x="1637" y="10" width="120" height="30" as="geometry" />
        </mxCell>
      </root>
    </mxGraphModel>
  </diagram>
</mxfile>
